<svg width="512" height="512" viewBox="0 0 512 512" fill="none" xmlns="http://www.w3.org/2000/svg">
<g clip-path="url(#clip0)">
<circle cx="256" cy="256" r="256" fill="#000308"/>
<path d="M110.918 225.979V205.258H200.918V227.216L136.278 298.969H204.32V320H106.588V296.495L169.371 225.979H110.918ZM255.94 320H231.816V204.948H255.94V320ZM228.724 170.928C228.724 166.804 230.167 163.299 233.053 160.412C236.146 157.32 239.858 155.773 244.188 155.773C248.311 155.773 251.816 157.32 254.703 160.412C257.796 163.299 259.342 166.804 259.342 170.928C259.342 175.258 257.796 178.969 254.703 182.062C251.816 184.948 248.311 186.392 244.188 186.392C239.858 186.392 236.249 184.845 233.363 181.753C230.27 178.866 228.724 175.258 228.724 170.928ZM409.124 261.856C409.124 279.175 403.763 293.505 393.042 304.845C382.32 316.186 369.536 321.856 354.691 321.856C340.052 321.856 326.959 315.464 315.413 302.68V362.062H291.289V204.948H315.413V225.052C325.103 210.412 337.578 203.093 352.835 203.093C368.712 203.093 382.011 208.557 392.732 219.485C403.66 230.412 409.124 244.536 409.124 261.856ZM349.124 300.206C359.021 300.206 367.371 296.701 374.176 289.691C381.186 282.474 384.691 273.402 384.691 262.474C384.691 251.546 381.186 242.474 374.176 235.258C367.371 228.041 359.124 224.433 349.433 224.433C339.743 224.433 331.598 228.144 325 235.567C318.402 242.784 315.103 251.753 315.103 262.474C315.103 273.402 318.402 282.474 325 289.691C331.598 296.701 339.64 300.206 349.124 300.206Z" fill="#8E14D9"/>
<path d="M110.918 225.979V205.258H200.918V227.216L136.278 298.969H204.32V320H106.588V296.495L169.371 225.979H110.918ZM255.94 320H231.816V204.948H255.94V320ZM228.724 170.928C228.724 166.804 230.167 163.299 233.053 160.412C236.146 157.32 239.858 155.773 244.188 155.773C248.311 155.773 251.816 157.32 254.703 160.412C257.796 163.299 259.342 166.804 259.342 170.928C259.342 175.258 257.796 178.969 254.703 182.062C251.816 184.948 248.311 186.392 244.188 186.392C239.858 186.392 236.249 184.845 233.363 181.753C230.27 178.866 228.724 175.258 228.724 170.928ZM409.124 261.856C409.124 279.175 403.763 293.505 393.042 304.845C382.32 316.186 369.536 321.856 354.691 321.856C340.052 321.856 326.959 315.464 315.413 302.68V362.062H291.289V204.948H315.413V225.052C325.103 210.412 337.578 203.093 352.835 203.093C368.712 203.093 382.011 208.557 392.732 219.485C403.66 230.412 409.124 244.536 409.124 261.856ZM349.124 300.206C359.021 300.206 367.371 296.701 374.176 289.691C381.186 282.474 384.691 273.402 384.691 262.474C384.691 251.546 381.186 242.474 374.176 235.258C367.371 228.041 359.124 224.433 349.433 224.433C339.743 224.433 331.598 228.144 325 235.567C318.402 242.784 315.103 251.753 315.103 262.474C315.103 273.402 318.402 282.474 325 289.691C331.598 296.701 339.64 300.206 349.124 300.206Z" fill="url(#paint0_linear)"/>
</g>
<defs>
<linearGradient id="paint0_linear" x1="271.242" y1="76.3164" x2="282.898" y2="441.789" gradientUnits="userSpaceOnUse">
<stop stop-color="#472BF3"/>
<stop offset="1" stop-color="white" stop-opacity="0"/>
</linearGradient>
<clipPath id="clip0">
<rect width="512" height="512" fill="white"/>
</clipPath>
</defs>
</svg>
